<svg width="848" height="755" xmlns="http://www.w3.org/2000/svg" xmlns:xlink="http://www.w3.org/1999/xlink" overflow="hidden"><defs><clipPath id="clip0"><rect x="1567" y="490" width="848" height="755"/></clipPath></defs><g clip-path="url(#clip0)" transform="translate(-1567 -490)"><path d="M170.433 721.26 170.433 689.072 223.621 689.072 276.809 689.072 276.809 453.508C276.809 193.638 277.334 211.112 268.666 197.448 257.897 180.5 233.995 171.566 214.296 177.347 195.779 182.602 182.515 196.923 178.444 215.841 177.656 219.651 176.999 234.366 176.999 248.292L176.999 273.911 88.2209 273.911-0.557194 273.911-0.0317655 234.891C0.624721 191.405 1.93809 181.814 10.9998 154.881 33.3256 88.1399 86.3823 34.7997 153.885 11.2828 194.466-2.90632 245.027-4.48284 286.79 7.34141 312.399 14.5673 329.997 22.8442 353.636 38.8726 404.328 73.4255 437.292 121.905 448.849 179.055 452.132 195.609 454.365 228.322 453.971 254.861 453.839 265.766 453.708 342.36 453.839 425.392L454.102 576.085 531.98 576.085C617.475 576.085 620.233 575.822 635.467 568.202 682.745 544.291 677.492 471.375 627.062 454.033 620.233 451.668 614.586 451.405 560.872 450.748L502.037 449.96 501.643 418.429 501.38 386.767 565.994 387.161C628.506 387.686 631.133 387.818 640.326 390.577 686.947 404.765 720.83 441.552 730.417 488.454 733.307 502.118 733.044 523.927 730.023 538.642 718.992 591.851 677.098 631.659 624.304 639.016 617.737 639.936 575.187 640.461 501.906 640.461L389.751 640.461 389.751 426.706C389.751 191.93 390.014 199.287 381.871 175.113 366.112 128.211 327.895 89.191 281.011 72.3744 264.464 66.4623 247.522 63.7034 227.56 63.7034 199.85 63.7034 178.444 68.8272 153.36 81.4396 115.274 100.621 84.281 136.619 71.5422 176.033 68.5217 185.492 67.3396 190.485 64.8445 205.331L64.0564 209.535 89.0088 209.535 113.961 209.535 114.749 205.988C118.164 190.748 120.002 185.098 125.124 174.719 143.904 136.619 183.565 112.314 227.035 112.314 279.829 112.314 322.905 145.422 337.482 197.054L340.503 207.564 340.897 480.572 341.16 753.448 255.796 753.448 170.433 753.448 170.433 721.26Z" fill="#7F7F7F" fill-rule="evenodd" transform="matrix(1 0 0 -1 1568 1244)"/><path d="M11.7434 721.266 11.7434 689.084 127.033 689.084C251.384 689.084 252.828 688.953 277.383 681.86 322.291 668.856 362.34 635.36 384.006 592.933 418.278 525.417 406.066 443.32 353.805 391.567 347.24 385.13 337.654 376.855 332.533 373.177 327.281 369.631 323.079 366.215 322.948 365.69 322.948 365.296 327.806 361.487 333.846 357.283 368.906 332.72 393.723 293.971 401.208 251.674 404.097 235.649 403.703 206.882 400.551 191.908 388.34 134.769 346.715 88.5323 291.696 71.1934 268.716 63.9691 266.222 63.8377 162.75 63.8377L67.1562 63.8377 55.3383 50.1768C39.8436 32.4441 16.7332 12.2155-0.862339 1.18172-4.1451-0.920045 253.485-1.18272 270.424 0.787611 284.605 2.49527 310.21 8.80015 323.079 13.7917 385.188 37.6981 435.48 89.9772 456.096 151.976 479.469 222.12 467.782 295.809 423.531 357.283 419.066 363.457 417.359 366.741 418.278 367.923 443.227 402.601 456.358 431.761 463.974 470.379 481.964 561.145 440.076 659.792 360.633 713.122 329.25 734.27 291.958 747.931 254.404 752.003 246.394 752.923 199.254 753.448 126.639 753.448L11.7434 753.448 11.7434 721.266Z" fill="#7F7F7F" fill-rule="evenodd" transform="matrix(1 0 0 -1 1946 1244)"/><path d="M25.3597 194.554 25.3597 162.407 90.7013 162.013 155.912 161.619 164.703 157.29C182.678 148.498 192.388 132.752 192.519 112.414 192.65 102.311 192.256 100.343 188.451 92.6011 183.334 82.1039 173.887 72.9189 163.391 68.064L155.912 64.5212 87.4211 64.1275C11.1892 63.7339 18.6682 64.6525 16.8312 54.6801 15.3879 46.8073 8.30275 24.2386 3.57922 12.9542 1.08622 7.04959-0.881831 1.53862-0.881831 0.751252-0.881831-0.298505 22.0795-0.560895 78.8926-0.0359164 145.809 0.488862 159.979 0.882546 167.458 2.71947 206.164 11.9045 236.605 38.2785 249.594 73.8373 254.974 88.4021 256.811 101.786 255.892 118.713 254.974 136.689 252.35 146.661 244.477 162.932 229.913 193.111 204.983 213.318 170.213 223.552 163.391 225.521 154.206 225.783 93.9815 226.308L25.3597 226.702 25.3597 194.554Z" fill="#7F7F7F" fill-rule="evenodd" transform="matrix(1 0 0 -1 2044 1132)"/></g></svg>